# xmcd
#
# Track frame offsets:
#	150
#	12511
#	22586
#	37047
#	51213
#	66759
#	82985
#	96752
#	110695
#	119597
#	133029
#
# Disc length: 2032 seconds
#
# Revision: 0
# Processed by: cddbd v1.5.2PL0 Copyright (c) Steve Scherf et al.
# Submitted via: EasyCDDAExtractor 10.5.1.1
#
DISCID=8e07ee0b
DTITLE=Ernest Carter - Keep On The Sunny Side Of Life
DYEAR=2009
DGENRE=Bluegrass
TTITLE0=Keep On The Sunny Side
TTITLE1=Take Away Jesus
TTITLE2=Preacher Man
TTITLE3=He Loves Me More And More
TTITLE4=High Waters
TTITLE5=Licking River/Sweet Sounds Of Mother
TTITLE6=The Bible
TTITLE7=Life Is Like A House
TTITLE8=Gather At The River
TTITLE9=Vision Of Mother
TTITLE10=One Empty Chair
EXTD=
EXTT0=
EXTT1=
EXTT2=
EXTT3=
EXTT4=
EXTT5=
EXTT6=
EXTT7=
EXTT8=
EXTT9=
EXTT10=
PLAYORDER=
